<mxfile host="app.diagrams.net" modified="2023-11-08T19:44:35.029Z" agent="Mozilla/5.0 (X11; Linux x86_64) AppleWebKit/537.36 (KHTML, like Gecko) Chrome/117.0.0.0 Safari/537.36" version="22.0.8" etag="sgxgCBzri6O1nyGcH5Uz" type="github">
  <diagram name="Page-1" id="1K-StyLHhkPIk5bmvoeR">
    <mxGraphModel>
      <root>
        <mxCell id="0" />
        <mxCell id="1" parent="0" />
      </root>
    </mxGraphModel>
  </diagram>
</mxfile>
